<?xml version="1.0" encoding="utf-8"?>
<!-- Generator: Adobe Illustrator 26.3.0, SVG Export Plug-In . SVG Version: 6.00 Build 0)  -->
<svg version="1.1" id="Capa_1" xmlns="http://www.w3.org/2000/svg" xmlns:xlink="http://www.w3.org/1999/xlink" x="0px" y="0px"
	 viewBox="0 0 1000 1000" style="enable-background:new 0 0 1000 1000;" xml:space="preserve">
<path d="M325.97,603.63c-1.19,0.84-2.4,1.66-3.57,2.53c-24.56,18.46-49.11,36.93-73.68,55.38c-2.14,1.6-4.31,3.16-6.53,4.64
	c-1.31,0.88-2.83,1.33-3.95-0.23c-1.14-1.59-0.08-2.84,1.1-3.82c2.28-1.9,4.6-3.75,6.97-5.55c26.95-20.47,53.89-40.94,80.88-61.36
	c1.9-1.44,3.15-3.07,3.45-5.43c1.04-8.38,2.35-16.74,3.08-25.15c1.11-12.71,1.39-25.5,2.78-38.17
	c3.87-35.15,14.16-68.21,33.65-98.01c2.59-3.96,3.3-7.61,1.97-12.06c-2.43-8.13-5.33-16.09-9.56-23.44
	c-5.99-10.41-11.99-20.86-18.68-30.82c-6.89-10.25-15.62-19.04-25.1-26.96c-8.67-7.24-18.08-13.45-28.13-18.69
	c-8.05-4.2-16.57-6.32-25.62-6.64c-8.02-0.28-16.04-0.44-23.93,1.22c-2.58,0.54-5.17,1.43-7.52,2.62
	c-17.66,8.93-34.43,19.31-49.67,31.98c-20.02,16.65-34.29,37.59-45.1,61.09c-10.08,21.92-16.03,44.97-18.69,68.86
	c-1.36,12.22-2.1,24.53-2.66,36.82c-0.48,10.56,1,21.04,2.94,31.41c0.54,2.89,1.62,5.7,2.71,8.44c0.53,1.33,1.49,2.59,2.54,3.59
	c3.34,3.17,6.09,2.79,7.98-1.34c1.9-4.17,3.26-8.59,5.02-12.84c1.88-4.51,3.62-9.13,6.01-13.37c4.76-8.45,11.97-13.93,21.67-15.48
	c6.11-0.98,11.34,1.29,15.63,5.73c4.13,4.28,6.86,9.41,8.1,15.13c3.06,14.21,4.1,28.45-0.2,42.7c-1.91,6.32-4.86,12.1-8.23,17.7
	c-1.68,2.79-4.3,4.51-7.32,5.52c-3.96,1.33-6.72-0.58-7.13-4.77c-0.38-3.89,1.18-6.97,4.21-9.29c1.41-1.08,2.95-2,4.53-2.81
	c4.01-2.05,6.75-5.23,8.72-9.2c4.24-8.49,5.44-17.58,4.59-26.85c-0.47-5.12-1.76-10.22-3.25-15.16c-0.88-2.91-2.55-5.73-4.43-8.14
	c-5.31-6.82-14.23-7.75-20.85-2.19c-6.05,5.09-10.39,11.21-11.41,19.45c-1.07,8.68-2.35,17.39-5.94,25.48
	c-1.24,2.79-2.81,5.63-4.89,7.82c-7.86,8.23-20.56,6.53-25.62-3.7c-2.73-5.52-4.64-11.58-5.99-17.61
	c-3.24-14.45-3.16-29.13-2.24-43.86c0.75-11.99,0.85-24.03,1.38-36.04c0.96-22.09,2.35-44.17,2.94-66.27
	c0.51-19.13,0.29-38.29,0.17-57.43c-0.13-20.18-0.89-40.37-0.7-60.55c0.22-23.92-0.56-47.78-2.01-71.64
	c-0.23-3.7-0.41-7.41-0.46-11.12c-0.3-19.29-0.78-38.58-0.75-57.88c0.02-12.77,1.09-25.52,4.37-37.94
	c2.54-9.61,6.72-18.25,14.42-25.05c7.82-6.9,16.73-8.56,26.55-6.75c3.62,0.67,7.16,1.91,10.68,3.06
	c11.84,3.87,23.63,7.87,35.48,11.71c8.03,2.6,16.05,5.3,24.21,7.45c12.24,3.22,24.74,4.85,37.44,4.49
	c14.09-0.39,28.22-0.38,42.25-1.48c10.46-0.82,20.88-2.72,31.17-4.86c11.25-2.34,20.4-8.57,27.85-17.32c1.72-2.02,3.59-4,5.69-5.61
	c4.59-3.51,8.27-2.32,11.07,2.11c3.95,6.25,4.69,12.52,3.28,19.55c-1.96,9.81-6.62,17.61-15.09,23.16
	c-15.29,10.03-31.8,15.79-50.28,15.15c-1.44-0.05-2.89-0.01-4.58,0.71c2.77,1.16,5.46,2.64,8.34,3.42c9.72,2.64,19.4,5.75,29.3,7.37
	c17.67,2.87,35.46,2.62,53.2-0.24c13.5-2.18,26.84-5.03,39.76-9.54c12.41-4.33,24.13-10.01,33.57-19.52
	c1.25-1.26,2.45-2.6,3.45-4.05c2.21-3.2,2.51-6.49,0.45-10.01c-1.34-2.29-2.51-4.74-3.33-7.26c-1.98-6.03,1.26-13,7.02-15.59
	c3.38-1.52,5.39-1.15,8.12,1.31c5.02,4.54,5.95,10.32,5.3,16.67c-0.83,8.13-4.34,15.04-9.6,21.12c-4.19,4.84-8.62,9.49-14.28,12.62
	c-14.57,8.05-29.38,15.48-45.96,18.66c-17.84,3.42-35.82,5.63-53.97,4.8c-12.87-0.59-25.75-1.97-38.09-6.21
	c-9.81-3.38-19.6-6.79-29.4-10.19c-0.56-0.19-1.13-0.4-1.64-0.7c-13.21-7.77-28.16-10.78-42.46-15.59
	c-14.05-4.72-27.97-9.81-41.93-14.8c-3.91-1.4-7.72-3.06-11.6-4.53c-9.41-3.56-18.74-7.38-28.3-10.5
	c-7.24-2.36-14.82-2.85-22.44-1.43c-11.65,2.16-19.15,9.55-24.53,19.49c-4.09,7.55-6,15.84-6.86,24.27
	c-1.19,11.65-2.15,23.35-2.69,35.05c-0.86,18.68-1.26,37.38-1.89,56.07c-0.55,16.23,0.85,32.34,3.1,48.37
	c1.71,12.19,3.72,24.34,5.94,36.45c1.26,6.87,3.54,13.49,7.31,19.48c6,9.53,12.76,12,23.48,8.77c8.31-2.5,16.16-5.96,23.21-11.02
	c13.79-9.91,28.42-18.23,43.98-25.09c26.32-11.61,52.02-24.56,77.96-37.01c30.2-14.5,61.64-25.41,94.45-32.42
	c14.26-3.05,28.61-5.04,43.15-5.86c12.54-0.71,24.89,0.4,37.07,3.52c11.44,2.93,21.46,8.53,30.42,16.1
	c7.48,6.32,11.77,14.41,12.74,24.17c0.51,5.08-1.31,9.35-5.19,12.65c-2.23,1.9-4.86,2.87-7.83,2.43c-4.48-0.66-6.42-5.36-3.78-9.07
	c0.34-0.48,0.8-0.88,1.19-1.32c3.74-4.32,4.25-9.2,1.35-14.29c-2.09-3.66-4.91-6.66-8.46-8.99c-7.71-5.07-16.27-7.8-25.25-9.45
	c-17.34-3.2-34.77-4.01-52.3-1.9c-23.02,2.77-45.76,6.65-67.44,15.43c-13.6,5.51-27.42,10.48-41.13,15.72
	c-1.31,0.5-2.54,1.22-3.61,2.43c5.12,0.23,10.25,0.41,15.37,0.68c22.64,1.19,44.05,7.51,65.11,15.45
	c15.61,5.89,29.61,14.31,42.13,25.28c9.41,8.24,16.91,17.87,21.49,29.62c0.27,0.69,0.61,1.34,0.93,2c0.06,0.12,0.21,0.21,0.55,0.52
	c0.52-0.14,1.26-0.21,1.87-0.53c12.99-6.75,26.92-10.89,40.89-14.94c18.56-5.38,36.63-12.04,54.06-20.42
	c15.82-7.6,29.92-17.54,42.07-30.23c16.8-17.55,23.19-38.55,20.68-62.47c-0.42-3.97-1.17-7.92-1.9-11.86
	c-1.04-5.6-3.37-10.66-6.17-15.63c-2.75-4.89-5.09-10.07-7.07-15.33c-2.53-6.73-6.67-12.19-11.83-17.01c-2.71-2.53-5.49-5-8.19-7.54
	c-3.38-3.18-5.31-7.12-5.7-11.74c-0.11-1.31-0.05-2.68,0.21-3.97c1.06-5.37,4.37-7.65,9.67-6.46c6.19,1.39,11.88,3.95,16.19,8.75
	c1.9,2.12,4.15,3.28,6.75,3.99c5.36,1.46,10.73,1.96,16.28,0.91c10.62-2.02,15.63-1.23,23.33,10.69c4.33,6.71,5.82,14.56,7.27,22.3
	c3.51,18.7,3.25,37.48,1.24,56.32c-1.59,14.93-4.07,29.69-8.29,44.12c-3.04,10.41-6.27,20.78-12.29,29.93
	c-9.4,14.29-19.64,27.95-32.62,39.26c-3.53,3.08-6.2,6.65-8.48,10.72c-7.98,14.24-16.01,28.45-24.32,42.49
	c-7.52,12.71-12.62,26.5-18.52,39.93c-1.97,4.47-3.61,9.11-5.07,13.78c-0.97,3.08-1.72,6.32-1.89,9.53
	c-0.24,4.48,1.97,6.87,6.46,7.53c2.03,0.3,4.16,0.29,6.2,0.06c6.81-0.79,13.41-2.46,19.71-5.24c10.48-4.62,20.5-10.06,30.18-16.18
	c5.77-3.65,11.52-7.33,17.4-10.79c2.33-1.37,3.82-3.03,4.53-5.67c3.79-14.03,8.04-27.95,11.46-42.07
	c5.65-23.35,10.72-46.85,16.15-70.25c2.24-9.67,3.98-19.57,7.4-28.83c3.94-10.67,9.22-20.88,14.41-31.04
	c3.08-6.03,8-10.65,14.14-13.79c6.77-3.45,13.18-2.77,19.22,1.71c3.13,2.33,5.79,5.11,7.53,8.65c1.7,3.46,3.37,6.94,4.97,10.44
	c1.79,3.9,2.74,4.23,6.22,1.56c2-1.53,3.93-3.19,5.69-4.98c7.49-7.62,15.22-15.04,22.28-23.04c11.79-13.37,25.93-23.34,41.73-31.34
	c9.03-4.57,18.37-8.29,27.79-11.91c5.8-2.23,11.52-4.75,17.05-7.59c12.49-6.41,21.12-16.6,27.17-29.07
	c5.86-12.08,10.36-24.62,11.96-38.05c0.33-2.78,0.65-5.66,0.29-8.4c-0.78-5.94-5.56-8.57-11.11-6.3c-1.76,0.72-3.4,1.82-4.96,2.93
	c-10.5,7.42-21.74,13.57-34.06,17.14c-8.64,2.5-17.68,3.8-26.62,4.98c-18.18,2.4-36.41,1.91-54.66,0.36
	c-12.29-1.04-24.5-2.34-36.5-5.35c-8.89-2.23-15.64-6.88-19.51-15.38c-1.58-3.47-4.11-6.14-7.32-8.18
	c-1.38-0.87-2.77-1.75-4.02-2.79c-3.67-3.09-3.83-7.48-0.33-10.83c2.95-2.83,6.59-3.97,10.64-3.52c6.11,0.68,10.95,3.67,14.38,8.71
	c1.99,2.94,3.8,6.05,5.29,9.26c4.91,10.56,13.02,16.32,24.54,18.25c10.46,1.76,20.93,2.37,31.47,2.44
	c12.17,0.08,24.37,0.18,36.41-1.85c4.36-0.73,8.67-1.99,12.87-3.4c16.68-5.59,31.42-14.5,44.66-26.09c6-5.25,11.7-11.01,19.26-14.21
	c2.63-1.11,5.22-2.01,8.17-1.2c4.46,1.22,7.31,4.11,8.2,8.49c0.67,3.3,0.9,6.78,0.7,10.14c-0.74,12.14-4.42,23.64-8.81,34.82
	c-5.47,13.97-8.09,28.52-9.97,43.24c-0.55,4.35-0.18,8.9,0.37,13.29c2.39,19.21,8.1,37.68,12.85,56.36
	c4.14,16.29,6.66,32.74,7.18,49.64c0.49,15.74,0.6,31.44-0.09,47.16c-0.46,10.57-2.33,20.94-4.69,31.2
	c-0.85,3.69-2.47,7.35-4.43,10.61c-1.47,2.43-3.83,4.51-6.19,6.18c-2.95,2.08-6.49,2.37-9.74,0.61c-3.24-1.76-6.44-3.7-9.3-6
	c-3.34-2.69-6.31-5.84-9.41-8.83c-6.9-6.67-15.09-8.97-24.53-7.6c-6.76,0.98-12.91,3.25-18.38,7.37
	c-21.11,15.91-36.18,36.2-44.46,61.38c-6.55,19.91-11.55,40.21-14.74,60.92c-2.45,15.9-2.35,31.95-1.97,47.99
	c0.26,11.01,1.29,21.94,4.31,32.57c1.01,3.55,2.23,7.09,3.81,10.42c1.41,2.96,3.5,3.2,6.22,1.3c5.73-4,9.46-13.34,7.9-20.07
	c-0.33-1.42-1.03-2.75-1.63-4.09c-1.03-2.3-2.22-4.53-3.15-6.86c-1.49-3.71-0.56-7,2.18-9.8c2.88-2.93,6.26-2.98,9.87-1.59
	c7.67,2.94,10.61,9.17,11.18,16.72c0.49,6.38-0.09,12.77-1.86,18.97c-2.88,10.1-9.2,17.2-19.16,20.67
	c-7.81,2.72-14.81,0.13-19.34-6.83c-4.91-7.55-6.85-16.15-7.55-24.9c-1.4-17.47-1.14-34.95,0.28-52.46
	c1.38-16.91,3.91-33.59,7.62-50.11c3.42-15.2,7.34-30.31,12.94-44.85c4.34-11.26,10.75-21.45,19-30.41
	c10.79-11.71,22.46-22.43,35.47-31.64c10.18-7.21,21.24-9.45,33.37-6.06c4.28,1.2,7.77,3.42,10.78,6.71c2.79,3.05,5.91,5.8,8.96,8.6
	c4.07,3.74,10.65,0.72,11.97-4.16c2.58-9.52,3.88-19.18,4.47-28.97c1.05-17.21,0.87-34.39-0.58-51.59
	c-1.85-21.95-8.56-42.37-18.43-61.88c-3.03-5.99-7-11.4-11.92-16c-6.29-5.88-13.97-8.19-22.44-7.96
	c-8.68,0.24-16.53,3.48-24.02,7.47c-13.38,7.13-26.06,15.43-38.04,24.71c-4.78,3.7-9.4,7.85-13.23,12.51
	c-10.74,13.06-21.21,26.36-31.44,39.83c-8.02,10.56-13.73,22.54-19.55,34.4c-10.8,22.01-19.79,44.77-27.68,67.97
	c-0.4,1.19-0.67,2.42-1.29,4.71c5.03-3.78,9.15-6.88,13.28-9.98c22.43-16.85,44.86-33.7,67.29-50.53c1.42-1.07,2.88-2.11,4.41-3.01
	c1.22-0.71,2.8-0.97,3.46,0.55c0.36,0.84,0.05,2.4-0.56,3.14c-1.1,1.35-2.61,2.4-4.03,3.48c-21.36,16.29-42.72,32.58-64.1,48.85
	c-6.61,5.03-13.21,10.09-19.95,14.96c-2.23,1.61-3.47,3.57-3.83,6.18c-0.86,6.17-1.95,12.32-2.47,18.51
	c-0.8,9.31-1.25,18.66-1.75,27.99c-1.25,23.55-5.58,46.59-12.95,68.92c-3.42,10.36-8.62,20.17-13.42,30.02
	c-2.98,6.12-6.65,11.92-10.21,17.74c-1.35,2.2-1.63,4.2-1.11,6.7c1.88,9.11,5.3,17.67,9.8,25.69c6.1,10.86,12.18,21.82,19.37,31.96
	c10.54,14.87,23.68,27.34,39.2,37.12c3.39,2.14,6.8,4.23,10.23,6.3c13.01,7.88,27.32,9.09,42.1,8.58
	c9.16-0.32,17.51-2.69,25.27-7.46c8.59-5.28,17.36-10.29,25.82-15.78c28.46-18.5,48.71-43.88,62.56-74.71
	c9.95-22.15,15.67-45.39,18.51-69.38c1.1-9.28,1.79-18.61,2.34-27.94c0.8-13.56-0.54-26.99-3.2-40.28
	c-0.52-2.59-1.51-5.14-2.67-7.51c-0.75-1.53-2.03-2.97-3.41-3.99c-2.84-2.1-4.96-1.68-6.45,1.51c-1.94,4.15-3.35,8.55-5.13,12.79
	c-2.01,4.78-3.82,9.69-6.34,14.19c-4.56,8.16-11.55,13.48-20.83,15.3c-6.48,1.27-11.94-1.06-16.47-5.7
	c-4.04-4.14-6.69-9.15-7.95-14.72c-3.41-15.12-4.47-30.31,0.89-45.21c1.94-5.4,4.81-10.5,7.52-15.59c1.52-2.84,4.29-4.51,7.32-5.49
	c3.75-1.21,6.51,0.54,7.07,4.46c0.56,3.87-1.02,7-3.96,9.39c-1.48,1.2-3.19,2.18-4.89,3.07c-3.98,2.09-6.69,5.29-8.69,9.24
	c-4.01,7.92-5.03,16.42-4.67,25.1c0.26,6.24,1.13,12.46,3.84,18.18c1.26,2.66,2.71,5.34,4.6,7.55c5.03,5.87,13.51,6.72,19.6,1.92
	c6.62-5.22,11.14-11.79,12.14-20.47c0.97-8.41,2.51-16.72,5.59-24.67c1.25-3.22,2.88-6.14,5.42-8.56c7.85-7.48,19.97-5.76,25.26,3.8
	c3.48,6.29,5.23,13.18,6.59,20.22c2.91,15.02,2.28,30.13,1.58,45.26c-0.49,10.67-0.87,21.35-1.32,32.03
	c-1.06,25.21-2.3,50.41-3.12,75.62c-0.42,12.9-0.16,25.82-0.05,38.74c0.25,29.98,0.37,59.96,0.97,89.93
	c0.42,21.21,1.74,42.41,2.28,63.62c0.51,20.03,0.71,40.07,0.67,60.1c-0.03,12.33-1.24,24.62-4.62,36.56
	c-2.58,9.13-6.77,17.27-14.11,23.74c-7.98,7.02-17.06,8.5-27.01,6.57c-3.47-0.67-6.86-1.88-10.23-2.99
	c-12.12-3.97-24.32-7.72-36.28-12.12c-8.94-3.29-18.03-5.93-27.3-7.98c-10.31-2.29-20.74-3.66-31.33-3.51
	c-9.94,0.15-19.89,0.07-29.83,0.41c-15.15,0.53-30.2,2.1-44.97,5.63c-10.19,2.43-19.1,7.23-26.2,15.11
	c-1.89,2.09-3.71,4.28-5.8,6.15c-1.63,1.45-3.51,2.77-5.51,3.61c-2.8,1.18-4.85,0.41-6.61-2.02c-4.24-5.87-6.3-12.11-4.88-19.62
	c2.01-10.61,6.63-19.14,15.88-25.14c18.4-11.92,38.17-17.02,60.14-13.99c11.39,1.57,22.36,4.33,33.21,7.91
	c12.95,4.28,26.01,8.25,38.89,12.71c8.68,3.01,17.12,6.69,25.71,9.98c9.4,3.6,18.74,7.39,28.29,10.54
	c7.24,2.38,14.79,2.87,22.43,1.55c8.02-1.39,14.28-5.51,19.46-11.57c7.24-8.46,10.46-18.65,11.71-29.36
	c1.56-13.4,2.64-26.87,3.29-40.35c0.95-19.57,1.73-39.16,1.79-58.74c0.04-11.99-0.94-24.03-2.3-35.95
	c-1.58-13.84-3.89-27.61-6.27-41.35c-0.91-5.22-2.59-10.38-4.55-15.32c-1.46-3.67-3.59-7.2-6.03-10.31
	c-4.54-5.81-10.66-7.72-17.88-5.82c-8.82,2.32-17.37,5.45-24.69,10.93c-18.7,14-39.81,23.43-60.82,33.16
	c-20.99,9.72-41.73,19.96-62.63,29.89c-30.39,14.44-61.94,25.44-94.91,32.43c-17.21,3.65-34.5,5.88-52.05,5.9
	c-10.13,0.01-20.09-1.52-29.86-4.32c-11.06-3.17-20.67-8.91-29.24-16.45c-6.5-5.72-10.09-13.11-11.53-21.55
	c-0.94-5.53,0.69-10.28,4.87-14.07c2.07-1.87,4.53-2.85,7.33-2.68c2.12,0.13,4.15,0.63,5.03,2.98c0.82,2.2,0.99,4.34-0.63,6.29
	c-0.28,0.34-0.61,0.65-0.9,0.99c-4.12,4.83-4.55,9.56-1.23,15c2.11,3.46,4.85,6.33,8.3,8.56c7.87,5.08,16.6,7.68,25.71,9.46
	c23.98,4.68,47.84,3.2,71.68-1c13.45-2.37,26.86-4.88,39.69-9.74c16.22-6.15,32.43-12.32,48.64-18.51c1.33-0.51,2.58-1.2,3.77-2.54
	c-0.64-0.07-1.28-0.19-1.92-0.19c-26.5,0.18-51.73-5.81-76.39-15.11c-16.31-6.15-31.11-14.61-44.2-26.1
	c-9.4-8.25-16.92-17.86-21.5-29.62c-0.32-0.81-0.74-1.58-1.27-2.7c-1.36,0.54-2.56,1-3.74,1.49c-6.43,2.67-12.8,5.52-19.33,7.95
	c-2.76,1.03-3.87,2.38-4.13,5.36c-0.8,14.85-1.24,29.6-1.73,45.34c0.07,1.33,0.09,2.69-0.09,4c-0.26,1.85-1.41,2.44-3.43,1.74
	c-0.66-17.25-1.32-34.56-2-52.17c-1.28,0.15-2.3,0.13-3.23,0.39c-20.45,5.78-40.43,12.83-59.6,22.08
	c-15.95,7.7-30.07,17.82-42.33,30.62c-12.08,12.61-18.56,27.69-20.41,44.93c-1.27,11.85,0.48,23.38,3.7,34.74
	c0.64,2.26,1.79,4.38,2.81,6.52c2.93,6.15,6.23,12.15,8.77,18.46c2.73,6.79,6.82,12.44,12.13,17.34c2.95,2.72,5.94,5.39,8.77,8.22
	c3.41,3.42,5.01,7.66,4.98,12.48c-0.05,7.16-4.16,10.34-11.06,8.55c-6.01-1.56-11.27-4.39-15.66-8.9c-1.28-1.32-3.02-2.4-4.75-3.02
	c-5.68-2.01-11.5-2.59-17.52-1.47c-10.9,2.03-15.93,1.15-23.65-10.92c-3.89-6.08-5.33-13.17-6.75-20.16
	c-4.02-19.86-3.6-39.85-1.46-59.85c1.8-16.85,5-33.44,10.29-49.59c3.3-10.06,7.48-19.65,13.69-28.3
	c9.45-13.18,19.44-25.86,31.87-36.45c1.43-1.22,2.63-2.84,3.57-4.48c9.25-16.07,18.38-32.22,27.65-48.29
	c7.15-12.38,12.1-25.76,17.71-38.83c1.81-4.22,3.4-8.56,4.73-12.95c0.94-3.09,1.64-6.34,1.78-9.55c0.18-4.29-1.98-6.52-6.29-7.22
	c-5.57-0.9-10.98,0.34-16.24,1.84c-4.68,1.34-9.25,3.19-13.72,5.15c-13.52,5.91-25.75,14.1-38.18,21.92
	c-0.5,0.32-0.96,0.74-1.51,0.95c-5.98,2.29-8.5,6.96-10.11,12.92c-8.28,30.65-16.52,61.3-22.8,92.44
	c-2.17,10.76-4.34,21.53-7.03,32.17c-1.66,6.58-3.96,13.06-6.6,19.33c-3.1,7.37-6.83,14.48-10.37,21.67
	c-2.26,4.59-5.54,8.45-9.46,11.69c-13.75,11.39-25.38,4.61-31.65-5.44c-2.34-3.75-3.99-7.94-5.89-11.96
	c-1.66-3.51-2.56-3.88-5.61-1.61c-2.25,1.68-4.41,3.54-6.37,5.55c-8.39,8.61-16.83,17.17-25,25.99
	c-10.96,11.83-24.04,20.58-38.28,27.9c-9.27,4.76-18.91,8.54-28.59,12.29c-6.21,2.4-12.28,5.22-18.19,8.29
	c-10.48,5.44-18.04,14.01-23.59,24.21c-7.59,13.92-12.78,28.73-14.43,44.61c-0.24,2.32-0.22,4.79,0.31,7.04
	c1.12,4.85,5.14,7.08,9.87,5.48c2.2-0.75,4.24-2.11,6.17-3.45c8.09-5.58,16.71-10.14,25.71-14.1c10.77-4.74,22.2-6.42,33.69-7.8
	c27.03-3.23,53.93-1.48,80.74,2.52c4.39,0.65,8.73,1.74,13.03,2.89c7.84,2.09,13.93,6.53,17.43,14.04c1.95,4.18,4.87,7.4,8.82,9.74
	c1.02,0.6,2.01,1.28,2.91,2.04c3.84,3.22,3.97,7.75,0.21,11.12c-3.02,2.71-6.65,3.85-10.71,3.31c-5.74-0.77-10.33-3.57-13.76-8.2
	c-1.32-1.78-2.41-3.74-3.52-5.67c-1.03-1.8-1.99-3.65-2.9-5.52c-4.62-9.59-12.29-15.05-22.74-16.54c-6.6-0.94-13.22-1.95-19.86-2.31
	c-16.32-0.9-32.65-0.9-48.88,1.41c-4.22,0.6-8.39,1.87-12.46,3.22c-16.84,5.6-31.82,14.42-45.08,26.22
	c-3.88,3.45-7.83,6.85-12.03,9.9c-2.85,2.07-6.04,3.81-9.31,5.1c-5.76,2.26-11.63-0.38-13.79-6.19c-0.96-2.58-1.4-5.48-1.45-8.25
	c-0.12-7.17,1.11-14.21,3.23-21.04c2.47-7.93,5.2-15.77,7.85-23.64c4.58-13.58,7.45-27.55,7.9-41.83
	c0.21-6.58-1.11-13.32-2.49-19.83c-2.62-12.32-5.41-24.64-8.82-36.76c-6.39-22.74-9.42-45.86-9.67-69.43
	c-0.18-16.48-0.24-32.95,1.96-49.32c0.71-5.29,1.55-10.59,2.84-15.76c1-3.99,2.46-7.96,4.39-11.58c1.34-2.51,3.56-4.76,5.84-6.52
	c3.26-2.51,7.16-3,10.91-0.96c2.98,1.61,5.96,3.36,8.57,5.5c3.44,2.81,6.56,6.01,9.75,9.12c6.88,6.73,15.09,8.88,24.52,7.72
	c9.09-1.12,16.6-5.35,23.37-11.11c19.09-16.25,32.94-35.99,40.38-60.13c6.13-19.88,11.52-39.96,14.06-60.61
	c1.43-11.6,1.74-23.38,1.86-35.08c0.12-11.11,0.2-22.3-2.14-33.27c-1.2-5.65-2.82-11.2-4.34-16.78c-0.35-1.27-0.93-2.52-1.6-3.66
	c-1.72-2.92-3.62-3.43-6.2-1.39c-5.86,4.65-12.06,15.52-6.02,24.94c1.34,2.09,2.28,4.51,3.02,6.9c1.11,3.58,0.07,6.75-2.68,9.3
	c-2.71,2.51-5.79,2.61-9.13,1.46c-7.4-2.55-10.75-8.26-11.45-15.51c-0.74-7.72-0.23-15.47,2.47-22.84
	c3.24-8.86,9.35-15.08,18.33-18.15c7.83-2.68,14.78-0.12,19.36,6.82c4.27,6.48,6.15,13.85,7.07,21.38c0.84,6.9,1.08,13.9,1.24,20.86
	c0.69,28.77-2.19,57.2-8.64,85.25c-3.39,14.75-7.2,29.41-12.49,43.6c-4.38,11.76-10.96,22.33-19.49,31.64
	c-10.76,11.74-22.46,22.43-35.46,31.65c-10.18,7.22-21.26,9.4-33.37,6.05c-4.29-1.18-7.77-3.42-10.78-6.71
	c-2.79-3.05-5.69-6.11-9-8.54c-4.89-3.59-10.29-1.71-11.7,4.16c-1.79,7.48-3.49,15.07-4.17,22.71c-1.85,20.73-1.73,41.49,0.52,62.23
	c2.22,20.52,8.88,39.6,18.21,57.82c2.08,4.06,4.89,7.8,7.75,11.38c9.21,11.5,21.34,14.6,35.1,10.73c6.36-1.79,12.66-4.45,18.35-7.8
	c10.86-6.39,21.49-13.23,31.75-20.54c5.99-4.27,11.69-9.29,16.42-14.91c10.7-12.7,20.9-25.84,30.97-39.06
	c8.22-10.79,14.1-23.01,20.05-35.14c10.93-22.28,19.97-45.34,27.99-68.81c0.28-0.83,0.5-1.67,0.75-2.51
	C326.34,604.05,326.16,603.84,325.97,603.63z M381.87,409.88c16.74-23.58,38.49-40.23,62.31-54.43c-2.43-8.42-5.8-15.95-11.29-22.38
	c-11.32-13.26-24.55-23.99-40.67-31c-12.57-5.46-25.62-9.32-38.96-12.23c-7.96-1.74-15.94-3.79-24.01-4.5
	c-10.16-0.89-20.44-0.74-30.66-0.66c-5.63,0.05-11.32,0.75-16.4,3.47c-7.97,4.26-15.84,8.72-23.72,13.14
	c-0.8,0.45-1.45,1.15-2.8,2.27c2.45,0.11,4.03,0.22,5.61,0.26c12.22,0.31,23.66,3.34,34.49,9.1c23,12.24,42.31,28.93,58.94,48.74
	c10.95,13.05,18.24,28.38,25.21,43.81C380.45,406.65,380.97,407.85,381.87,409.88z M628.36,588.22
	c-16.52,23.41-38.3,40.07-62.26,54.43c2.28,8.31,5.7,15.82,11.15,22.25c9.39,11.07,20.15,20.54,33.07,27.36
	c14.82,7.82,30.72,12.55,47.01,16.04c8.26,1.77,16.54,3.77,24.92,4.55c9.43,0.88,18.97,0.66,28.46,0.61
	c5.94-0.03,11.94-0.67,17.3-3.51c8.12-4.3,16.11-8.87,24.14-13.34c0.7-0.39,1.29-0.98,2.66-2.04c-2.31-0.12-3.74-0.23-5.16-0.25
	c-13.34-0.21-25.7-3.75-37.34-10.29c-11.96-6.72-23.16-14.48-33.35-23.62c-11.61-10.42-22.79-21.3-31.17-34.62
	c-6.65-10.55-12.47-21.57-17.38-33.05C629.82,591.4,629.2,590.08,628.36,588.22z M618.03,181.83c-2.61,4.79-2.68,7.23-1.45,14.2
	c1.6,9.05,3.46,18.1,4.3,27.24c2.16,23.49-4.55,44.33-20.36,61.95c-12.12,13.51-26.53,24.05-42.74,32.27
	c-19.12,9.7-38.99,17.4-59.65,23.1c-6,1.66-12.02,3.31-17.93,5.27c-7.73,2.56-14.98,6.25-22.32,9.79c1.36,4.31,2.59,8.19,3.82,12.07
	c6.57-2.02,12.87-4.23,19.32-5.91c20.27-5.27,40.99-8.27,61.65-11.51c19.19-3.01,37.02-9.47,53.55-19.56c2.51-1.53,4.78-3.51,7-5.46
	c11.84-10.41,18.43-23.88,21.87-38.93c5.92-25.95,6.14-52.07,1.37-78.23c-1.19-6.56-2.51-13.1-3.97-19.6
	C621.92,185.95,620.79,183.51,618.03,181.83z M392.23,816.34c2.75-4.1,2.45-8.05,1.78-12.05c-1.48-8.78-3.38-17.5-4.39-26.33
	c-2.91-25.44,3.95-47.85,21.59-66.71c12.2-13.05,26.49-23.21,42.42-31.24c19.69-9.93,40.2-17.59,61.45-23.35
	c1.81-0.49,3.59-1.08,5.51-1.65c-0.29-5.61-0.56-10.72-0.84-16.04c-1.2,0.11-1.93,0.13-2.64,0.25c-16.95,2.93-33.88,6-50.86,8.77
	c-17.94,2.92-34.71,8.98-50.33,18.2c-3.17,1.87-6.12,4.2-8.88,6.65c-8.73,7.74-14.86,17.23-18.7,28.26
	c-6.4,18.35-7.96,37.35-7.78,56.57c0.1,11.15,1.22,22.22,3.32,33.17c1.17,6.11,2.31,12.24,3.69,18.31
	C388.18,811.86,389.33,814.45,392.23,816.34z M583.26,362.77c-0.31-0.33-0.62-0.66-0.93-0.98c-4.84,2.82-9.79,5.46-14.49,8.49
	c-13.25,8.53-26.96,16.31-41.53,22.21c-12.13,4.91-22.83,11.94-33.52,19.16c-1.08,0.73-2.04,1.64-2.92,2.36
	c0.26,2.65,0.47,5,0.74,7.35c1.18,10.61,2.27,21.24,3.6,31.83c0.74,5.83,3.13,11.13,6.36,16c1.78,2.69,3.59,3.15,6.5,1.85
	c1.47-0.66,2.84-1.61,4.16-2.55c6.36-4.53,11.59-10.16,15.92-16.63c3.96-5.92,7.96-11.81,11.89-17.76
	c9.23-13.99,17.35-22.07,24.96-37.1c0.73-1.44,4.02-7.7,5-9C574,377,578.4,371.05,583.26,362.77z M427.07,636.13
	c5.77-2.22,10.52-5.09,15.18-8.15c13.15-8.66,26.91-16.32,41.45-22.25c10.97-4.48,20.78-10.67,30.64-16.99
	c2.52-1.62,3.54-3.4,3.39-6.51c-0.38-7.84-0.11-15.72-0.47-23.56c-0.25-5.45-0.57-11-1.84-16.27c-1.09-4.53-3.29-8.86-5.49-13.02
	c-1.82-3.44-3.94-3.77-7.44-1.98c-1.31,0.67-2.53,1.54-3.73,2.41c-6.34,4.55-11.51,10.22-15.83,16.69
	c-3.87,5.79-7.8,11.55-11.62,17.37c-9.2,13.99-19.43,27.31-26.98,42.35c-0.46,0.92-1.05,1.8-1.7,2.6
	c-6.17,7.53-9.86,16.52-14.71,24.82C427.56,634.21,427.46,634.93,427.07,636.13z M620.15,517.51c-3.42-0.85-6.54-1.67-9.69-2.39
	c-1.73-0.39-3.49-0.63-5.25-0.88c-2.39-0.34-4.18,0.39-5.7,2.48c-3.57,4.91-7.48,9.58-11.08,14.47
	c-7.35,9.97-12.84,20.9-16.89,32.61c-4.61,13.36-5.43,27.24-6.29,41.14c-0.02,0.35,0.34,0.72,0.71,1.47
	c2.22-0.99,4.43-1.81,6.48-2.91c3.65-1.96,7.23-4.07,10.82-6.15c12.97-7.52,25.44-15.74,36.58-25.87c1.94-1.77,2.85-3.35,2.25-6.09
	c-2.87-13.15-2.76-26.47-1.97-39.82C620.28,522.95,620.15,520.29,620.15,517.51z M445.24,391.73c-1.57,0.45-2.63,0.57-3.5,1.03
	c-4.59,2.41-9.18,4.81-13.68,7.38c-13.41,7.67-26.27,16.1-37.75,26.54c-2.01,1.83-2.6,3.53-2.14,6.15
	c0.88,4.95,1.84,9.96,1.98,14.96c0.26,8.73-0.09,17.47-0.17,26.21c-0.02,2.32,0,4.63,0,6.55c3.32,0.82,6.02,1.55,8.75,2.16
	c2.02,0.45,4.07,0.79,6.11,1.12c2.58,0.42,4.46-0.47,6.05-2.67c3.3-4.56,6.92-8.89,10.3-13.4c8.15-10.9,14.14-22.89,18.3-35.86
	c3.06-9.55,4.08-19.4,4.88-29.3C444.66,399.11,444.93,395.62,445.24,391.73z M344.56,582.04c6.48-4.94,12.16-9.17,17.71-13.59
	c0.93-0.74,1.46-2.19,1.81-3.42c1.6-5.55,3.27-11.09,4.55-16.72c1.71-7.5,3.58-15.01,4.5-22.62c1.46-12.05,2.51-24.18,3.13-36.31
	c0.73-14.2,0.84-28.43,1.14-42.65c0.03-1.33,0.46-2.93-1.04-4.17c-0.5,0.54-0.97,0.91-1.27,1.38c-6.29,9.87-12.73,19.64-18.76,29.66
	c-3.5,5.83-6.37,12.05-7.96,18.76c-6.13,25.76-7.67,51.82-4.96,78.14C343.78,574.02,344.12,577.55,344.56,582.04z M665.87,415.91
	c-6.6,5.02-12.29,9.24-17.82,13.68c-1.02,0.82-1.56,2.45-1.97,3.81c-1.39,4.69-2.75,9.39-3.88,14.14
	c-1.75,7.34-3.84,14.66-4.83,22.11c-1.42,10.71-2.3,21.52-2.84,32.32c-0.82,16.27-1.16,32.57-1.66,48.86
	c-0.05,1.52,0.23,3.04,0.36,4.57c0.34,0.11,0.69,0.22,1.03,0.33c0.29-0.51,0.55-1.04,0.87-1.53c6.34-10.01,13-19.83,18.91-30.09
	c3.22-5.59,5.91-11.72,7.54-17.94c5.43-20.78,7.32-42,6.25-63.45C667.38,434.16,666.59,425.63,665.87,415.91z M335.04,600.87
	c-0.4-0.01-0.8-0.01-1.21-0.02c-2.06,5.85-4.04,11.72-6.18,17.53c-6,16.33-10.56,33.06-13.78,50.13
	c-3.07,16.26-3.96,32.7-2.21,49.18c0.41,3.88,1.79,7.8,3.44,11.37c1.64,3.55,4.61,3.87,7.04,0.84c2.48-3.09,4.74-6.5,6.37-10.1
	c5.87-12.98,8.48-26.82,9.83-40.9c1.64-17.04,1.19-34.09-0.35-51.11C337.17,618.81,336.03,609.84,335.04,600.87z M675.48,396.79
	c0.31,0.05,0.62,0.1,0.93,0.14c0.34-0.8,0.72-1.59,1.01-2.41c5.46-15.82,11.02-31.59,15.24-47.84c5.2-19.99,7.27-40.21,6.45-60.78
	c-0.12-3.1-0.35-6.26-1.08-9.25c-0.68-2.84-1.79-5.67-3.24-8.2c-1.55-2.73-4.06-2.92-6.29-0.74c-1.46,1.44-2.88,3.07-3.8,4.88
	c-2.15,4.21-4.4,8.45-5.89,12.91c-4.29,12.85-6.51,26.12-7.43,39.65c-1.34,19.62,0.26,39.11,2.06,58.6
	C673.86,388.12,674.79,392.44,675.48,396.79z M481.23,421.7c-0.29-0.16-0.57-0.32-0.86-0.48c-1.17,0.86-2.35,1.7-3.51,2.57
	c-9.24,7-17.46,15.11-25.23,23.68c-9.55,10.53-19.09,21.05-28.59,31.62c-1.11,1.23-1.94,2.71-3.11,4.37
	c6.36,0,11.99,0.46,17.53-0.09c13.35-1.33,23.55-7.96,30.88-19.26C476.75,451.15,478.87,436.41,481.23,421.7z M589.98,514.45
	c-5.43,0-10.48-0.32-15.48,0.06c-19.31,1.43-31.96,13.31-38.7,31.94c-0.4,1.1-0.59,2.31-0.65,3.48c-0.36,6.67-0.67,13.34-0.94,20.01
	c-0.04,0.91,0.23,1.84,0.37,2.93C544.25,566.93,585.37,523.61,589.98,514.45z M462.63,385.56c-0.72,6.56-1.63,12.86-2.04,19.2
	c-0.41,6.24-4.12,11.8-4.18,18.91c1.85-1.28,2.98-1.95,3.99-2.78c9.03-7.44,18.1-14.83,27.02-22.4c2.93-2.48,5.55-5.34,8.13-8.2
	c2.35-2.59,1.76-4.43-1.61-5.5c-1.69-0.53-3.44-0.92-5.2-1.16C480.05,382.43,471.37,381.61,462.63,385.56z M554.02,575.41
	c-0.36-0.25-0.72-0.49-1.08-0.74c-6.21,4.99-12.49,9.92-18.58,15.05c-0.96,0.81-1.45,2.57-1.55,3.93
	c-0.46,5.91-0.71,11.84-0.98,17.77c-0.06,1.27,0.11,2.54,0.18,3.98c5.65,0.16,10.68-0.53,15.62-2.93
	c0.65-6.24,0.98-12.48,2.04-18.59C550.74,587.66,552.54,581.56,554.02,575.41z M446.27,362.35c-0.89,0.18-1.37,0.16-1.7,0.37
	c-6.64,4.16-13.58,7.94-19.81,12.64c-6.39,4.83-11.47,11.12-15.62,18.05c-0.68,1.13-1.92,2.3-0.71,4.48
	c13.16-8.3,26.15-16.5,39.64-25.01C447.5,369.59,446.89,366.02,446.27,362.35z M563.99,636.13c8.91-4.34,16.95-8.81,23.52-15.21
	c4.94-4.81,9.03-10.5,13.38-15.89c0.93-1.15,1.84-2.56,1.36-5.09c-13.52,8.53-26.61,16.78-40.06,25.26
	C562.73,628.49,563.3,631.95,563.99,636.13z M602.12,494.91c7.7-14.53,13.86-29.12,19.27-44.18c-6.56,4.66-12.83,9.46-17.77,15.77
	c-4.79,6.12-6.04,13.06-4.66,20.57C599.43,489.64,599.95,492.22,602.12,494.91z M388.8,547.4c6.62-4.68,12.97-9.52,17.89-15.91
	c5.86-7.62,6.18-16.05,3.44-24.86c-0.33-1.06-1.04-2-1.89-3.58C400.38,517.65,394.29,532.33,388.8,547.4z M548.53,630.22
	c-6.27,2.1-12.23,4.1-18.3,6.13c-0.33,5.35-0.65,10.44-1.02,16.27c8.36-3.06,15.73-6.5,23.08-10.25
	C551.01,638.25,549.85,634.49,548.53,630.22z M348.82,612.78c4.77-11.57,8.76-22.79,11.25-34.59c-4.88,3.15-9.33,6.56-13.84,9.9
	c-1.42,1.05-1.5,2.44-1.36,3.95c0.28,3.25,0.39,6.52,0.9,9.73C346.34,605.32,346.58,609.01,348.82,612.78z M662.13,386.09
	c-0.35,0.01-0.7,0.01-1.05,0.02c-4.47,10.95-8.47,22.05-10.87,33.77c4.87-3.14,9.39-6.44,13.73-9.97c0.84-0.68,1.37-2.31,1.29-3.45
	c-0.32-4.71-0.84-9.42-1.48-14.1C663.45,390.23,662.69,388.17,662.13,386.09z M622.87,481.78c-0.19-0.09-0.37-0.18-0.56-0.27
	c-4.27,7.48-8.55,14.96-12.88,22.54c3.15,2.99,6.9,4.48,11.21,5.73C621.4,500.23,622.13,491.01,622.87,481.78z M389.57,488.23
	c-0.75,9.69-1.46,18.93-2.17,28.16c0.21,0.02,0.41,0.03,0.62,0.05c4.24-7.42,8.48-14.84,12.77-22.36
	C397.67,491,393.87,489.63,389.57,488.23z M518.35,604.01c-1.82,1.9-3.1,3.03-4.14,4.35c-1.57,2-1.23,3.5,1.02,4.57
	c0.97,0.46,2.13,0.49,3.71,0.82C518.74,610.52,518.58,607.79,518.35,604.01z"/>
<path d="M535,856c0,7-0.6,11.33-1.57,17.01c-0.29,1.72-0.97,3.45-1.81,4.99c-3.31,6.11-11.09,6.51-15.01,0.77
	c-2.77-4.06-3.65-8.8-3.6-13.57c0.07-6.22,0.38-12.46,1.06-18.64c2.44-21.96,5.07-43.89,7.67-65.83c0.3-2.5,0.78-4.98,1.31-7.44
	c0.28-1.32,0.91-2.94,2.5-2.51c0.96,0.26,2.07,1.69,2.26,2.75c0.79,4.52,1.38,9.08,1.81,13.64c1.19,12.84,2.25,25.69,3.39,38.54
	C533.89,835.75,535,846,535,856z"/>
<path d="M831.84,873.12c-0.67,1.24-1.42,2.45-2,3.74c-2.32,5.14-4.54,10.32-6.89,15.44c-0.63,1.38-0.96,3.27-3.44,3.12
	c-0.54-3.35,1.76-5.76,2.84-8.5c1.12-2.84,2.6-5.53,4.24-8.95c-3.36,0.98-5.14,4.43-8.55,2.99c-0.34-2.24,1.09-3.38,2.44-4.48
	c2.07-1.69,4.09-3.47,6.34-4.89c3.15-2,5.14-4.78,6.68-8.08c2.05-4.38,4.29-8.67,5.91-13.48c-3.68,1.98-7.36,3.96-11.39,6.13
	c0.09,0.82,0.25,1.94,0.35,3.06c0.28,3.29-0.69,6.17-3.03,8.51c-1.85,1.85-4.17,2.38-6.08,1.4c-2.06-1.06-3.05-2.89-2.82-5.13
	c0.22-2.16,0.82-4.29,1.31-6.77c-5.04-0.75-9.97-1.49-14.88-2.22c-4.84,7.53-7.35,18.99-5.29,25.49c2.86-1.1,5.72-2.19,9.08-3.48
	c-0.39,3-1.91,4.41-3.55,5.56c-2.09,1.47-4.44,2.63-7.05,1.3c-2.49-1.28-2.63-3.7-2.71-6.14c-0.16-4.81,0.61-9.46,2.19-13.99
	c1.12-3.21,2.18-6.44,3.35-9.91c-1.58-0.78-3.09-1.35-4.38-2.25c-0.56-0.39-1.08-1.61-0.86-2.13c0.24-0.55,1.42-1.04,2.12-0.95
	c1.3,0.16,2.53,0.8,3.82,1.15c5.85,1.58,11.65,3.48,17.6,4.54c2.54,0.45,5.44-0.69,8.09-1.44c5.69-1.6,10.28-5.2,14.95-8.62
	c0.6-0.44,1.16-0.92,1.76-1.37c3.58-2.67,4.49-2.26,5.03,2.23c0.24,0.15,0.47,0.37,0.73,0.44c5.91,1.57,7.41,5.03,3.53,9.62
	c-3.63,4.28-7.84,8.1-12.09,11.77c-2.41,2.08-3.41,4.18-2.91,7.3c0.9,5.58,2.38,10.97,4.84,17.05c3.14-6.61,5.94-12.51,8.74-18.4
	c0.3,0.13,0.6,0.25,0.91,0.38c0.18,2.76-1.77,4.9-2.6,7.36c-0.95,2.8-2.21,5.5-3.35,8.24c-1.06,2.54-2.15,5.07-3.22,7.58
	c-2.85-0.59-3.57-2.57-4.1-4.3c-1.49-4.8-2.7-9.69-3.97-14.56c-0.36-1.37-0.56-2.78-0.83-4.18
	C832.39,873.22,832.12,873.17,831.84,873.12z M837.38,862.47c7.42-5.05,10.98-8.94,11.88-12.53c-2.29-1.53-4.43-0.57-5.81,1.11
	C840.69,854.42,838.71,858.31,837.38,862.47z M822.51,857.92c-1.42,2.49-2.68,4.36-1.63,6.99
	C823.99,862.12,824.05,861.92,822.51,857.92z"/>
<path d="M873.39,877.34c-1.9-0.47-3.87-0.77-5.69-1.46c-4.26-1.61-8.46-3.4-12.67-5.13c-0.54-0.22-1.19-0.43-1.52-0.85
	c-0.4-0.52-0.82-1.38-0.64-1.87c0.18-0.49,1.09-0.72,1.7-1.04c0.11-0.06,0.3-0.01,0.43,0.04c6.51,2.5,13.46,4.12,18.82,8.94
	C873.67,876.43,873.53,876.88,873.39,877.34z"/>
<path d="M816.13,871.43c-2.31-0.42-3.98-0.56-5.52-1.09c-0.53-0.18-0.92-1.32-0.98-2.05c-0.02-0.26,1.16-0.96,1.7-0.88
	C813.14,867.71,815.21,867.82,816.13,871.43z"/>
</svg>
